<mxfile host="Electron" modified="2023-12-03T02:23:00.319Z" agent="Mozilla/5.0 (Windows NT 10.0; Win64; x64) AppleWebKit/537.36 (KHTML, like Gecko) draw.io/22.0.3 Chrome/114.0.5735.289 Electron/25.8.4 Safari/537.36" etag="hKSOFLfbMv6cdcmMP_NA" version="22.0.3" type="device">
  <diagram name="Page-1" id="s_W3Md66j4uesOXTn8Xe">
    <mxGraphModel dx="1032" dy="495" grid="1" gridSize="10" guides="1" tooltips="1" connect="1" arrows="1" fold="1" page="1" pageScale="1" pageWidth="850" pageHeight="1100" math="0" shadow="0">
      <root>
        <mxCell id="0" />
        <mxCell id="1" parent="0" />
        <mxCell id="UGHHSuZMt2xYdVVIRW-B-1" value="Package Management&lt;br&gt;App" style="shape=umlFrame;whiteSpace=wrap;html=1;pointerEvents=0;recursiveResize=0;container=1;collapsible=0;width=160;" parent="1" vertex="1">
          <mxGeometry x="120" y="80" width="310" height="670" as="geometry" />
        </mxCell>
        <mxCell id="UGHHSuZMt2xYdVVIRW-B-8" value="Search for Resident" style="ellipse;whiteSpace=wrap;html=1;" parent="UGHHSuZMt2xYdVVIRW-B-1" vertex="1">
          <mxGeometry x="30" y="150" width="80" height="50" as="geometry" />
        </mxCell>
        <mxCell id="UGHHSuZMt2xYdVVIRW-B-7" value="Select Res./PSA" style="ellipse;whiteSpace=wrap;html=1;" parent="UGHHSuZMt2xYdVVIRW-B-1" vertex="1">
          <mxGeometry x="190" y="150" width="80" height="50" as="geometry" />
        </mxCell>
        <mxCell id="UGHHSuZMt2xYdVVIRW-B-10" value="&amp;lt;&amp;lt;include&amp;gt;&amp;gt;" style="html=1;verticalAlign=bottom;labelBackgroundColor=none;endArrow=open;endFill=0;dashed=1;rounded=0;entryX=1;entryY=0.5;entryDx=0;entryDy=0;exitX=0;exitY=0.5;exitDx=0;exitDy=0;" parent="UGHHSuZMt2xYdVVIRW-B-1" source="UGHHSuZMt2xYdVVIRW-B-7" target="UGHHSuZMt2xYdVVIRW-B-8" edge="1">
          <mxGeometry width="160" relative="1" as="geometry">
            <mxPoint x="480" y="37.5" as="sourcePoint" />
            <mxPoint x="640" y="37.5" as="targetPoint" />
          </mxGeometry>
        </mxCell>
        <mxCell id="UGHHSuZMt2xYdVVIRW-B-23" value="Remove Package&lt;br&gt;&amp;nbsp;Pending" style="ellipse;whiteSpace=wrap;html=1;" parent="UGHHSuZMt2xYdVVIRW-B-1" vertex="1">
          <mxGeometry x="180" y="310" width="80" height="50" as="geometry" />
        </mxCell>
        <mxCell id="UGHHSuZMt2xYdVVIRW-B-22" value="Add Package&lt;br&gt;to Pending" style="ellipse;whiteSpace=wrap;html=1;" parent="UGHHSuZMt2xYdVVIRW-B-1" vertex="1">
          <mxGeometry x="30" y="240" width="80" height="50" as="geometry" />
        </mxCell>
        <mxCell id="UGHHSuZMt2xYdVVIRW-B-12" value="&amp;lt;&amp;lt;extend&amp;gt;&amp;gt;" style="html=1;verticalAlign=bottom;labelBackgroundColor=none;endArrow=open;endFill=0;dashed=1;rounded=0;exitX=1;exitY=1;exitDx=0;exitDy=0;entryX=0.5;entryY=0;entryDx=0;entryDy=0;" parent="UGHHSuZMt2xYdVVIRW-B-1" source="UGHHSuZMt2xYdVVIRW-B-8" target="UGHHSuZMt2xYdVVIRW-B-23" edge="1">
          <mxGeometry width="160" relative="1" as="geometry">
            <mxPoint x="270" y="57.5" as="sourcePoint" />
            <mxPoint x="430" y="57.5" as="targetPoint" />
          </mxGeometry>
        </mxCell>
        <mxCell id="UGHHSuZMt2xYdVVIRW-B-9" value="&amp;lt;&amp;lt;extend&amp;gt;&amp;gt;" style="html=1;verticalAlign=bottom;labelBackgroundColor=none;endArrow=open;endFill=0;dashed=1;rounded=0;exitX=0.5;exitY=1;exitDx=0;exitDy=0;entryX=0.5;entryY=0;entryDx=0;entryDy=0;" parent="UGHHSuZMt2xYdVVIRW-B-1" source="UGHHSuZMt2xYdVVIRW-B-8" target="UGHHSuZMt2xYdVVIRW-B-22" edge="1">
          <mxGeometry width="160" relative="1" as="geometry">
            <mxPoint x="250" y="37.5" as="sourcePoint" />
            <mxPoint x="410" y="37.5" as="targetPoint" />
          </mxGeometry>
        </mxCell>
        <mxCell id="UGHHSuZMt2xYdVVIRW-B-20" value="Search for Package" style="ellipse;whiteSpace=wrap;html=1;" parent="UGHHSuZMt2xYdVVIRW-B-1" vertex="1">
          <mxGeometry x="30" y="370" width="80" height="50" as="geometry" />
        </mxCell>
        <mxCell id="UGHHSuZMt2xYdVVIRW-B-11" value="&amp;lt;&amp;lt;extend&amp;gt;&amp;gt;" style="html=1;verticalAlign=bottom;labelBackgroundColor=none;endArrow=open;endFill=0;dashed=1;rounded=0;exitX=1;exitY=0.5;exitDx=0;exitDy=0;entryX=0;entryY=1;entryDx=0;entryDy=0;" parent="UGHHSuZMt2xYdVVIRW-B-1" source="UGHHSuZMt2xYdVVIRW-B-20" target="UGHHSuZMt2xYdVVIRW-B-23" edge="1">
          <mxGeometry x="-0.5" width="160" relative="1" as="geometry">
            <mxPoint x="190" y="380" as="sourcePoint" />
            <mxPoint x="350" y="380" as="targetPoint" />
            <mxPoint as="offset" />
          </mxGeometry>
        </mxCell>
        <mxCell id="UGHHSuZMt2xYdVVIRW-B-21" value="Retrieve Package History" style="ellipse;whiteSpace=wrap;html=1;" parent="UGHHSuZMt2xYdVVIRW-B-1" vertex="1">
          <mxGeometry x="30" y="50" width="80" height="50" as="geometry" />
        </mxCell>
        <mxCell id="UGHHSuZMt2xYdVVIRW-B-31" value="&amp;lt;&amp;lt;extend&amp;gt;&amp;gt;" style="html=1;verticalAlign=bottom;labelBackgroundColor=none;endArrow=open;endFill=0;dashed=1;rounded=0;exitX=0.5;exitY=0;exitDx=0;exitDy=0;entryX=0.5;entryY=1;entryDx=0;entryDy=0;" parent="UGHHSuZMt2xYdVVIRW-B-1" source="UGHHSuZMt2xYdVVIRW-B-8" target="UGHHSuZMt2xYdVVIRW-B-21" edge="1">
          <mxGeometry width="160" relative="1" as="geometry">
            <mxPoint x="270" y="-30" as="sourcePoint" />
            <mxPoint x="430" y="-30" as="targetPoint" />
          </mxGeometry>
        </mxCell>
        <mxCell id="UGHHSuZMt2xYdVVIRW-B-5" value="Create Resident" style="ellipse;whiteSpace=wrap;html=1;" parent="UGHHSuZMt2xYdVVIRW-B-1" vertex="1">
          <mxGeometry x="30" y="460" width="80" height="50" as="geometry" />
        </mxCell>
        <mxCell id="UGHHSuZMt2xYdVVIRW-B-41" value="Create Resident Name" style="ellipse;whiteSpace=wrap;html=1;" parent="UGHHSuZMt2xYdVVIRW-B-1" vertex="1">
          <mxGeometry x="180" y="400" width="80" height="50" as="geometry" />
        </mxCell>
        <mxCell id="UGHHSuZMt2xYdVVIRW-B-40" value="Create Resident Unit #" style="ellipse;whiteSpace=wrap;html=1;" parent="UGHHSuZMt2xYdVVIRW-B-1" vertex="1">
          <mxGeometry x="180" y="460" width="80" height="50" as="geometry" />
        </mxCell>
        <mxCell id="UGHHSuZMt2xYdVVIRW-B-14" value="&amp;lt;&amp;lt;include&amp;gt;&amp;gt;" style="html=1;verticalAlign=bottom;labelBackgroundColor=none;endArrow=open;endFill=0;dashed=1;rounded=0;exitX=0;exitY=0.5;exitDx=0;exitDy=0;entryX=1;entryY=0;entryDx=0;entryDy=0;" parent="UGHHSuZMt2xYdVVIRW-B-1" source="UGHHSuZMt2xYdVVIRW-B-41" target="UGHHSuZMt2xYdVVIRW-B-5" edge="1">
          <mxGeometry width="160" relative="1" as="geometry">
            <mxPoint x="500" y="-30" as="sourcePoint" />
            <mxPoint x="660" y="-30" as="targetPoint" />
          </mxGeometry>
        </mxCell>
        <mxCell id="UGHHSuZMt2xYdVVIRW-B-42" value="&amp;lt;&amp;lt;include&amp;gt;&amp;gt;" style="html=1;verticalAlign=bottom;labelBackgroundColor=none;endArrow=open;endFill=0;dashed=1;rounded=0;exitX=0;exitY=0.5;exitDx=0;exitDy=0;entryX=1;entryY=0.5;entryDx=0;entryDy=0;" parent="UGHHSuZMt2xYdVVIRW-B-1" source="UGHHSuZMt2xYdVVIRW-B-40" target="UGHHSuZMt2xYdVVIRW-B-5" edge="1">
          <mxGeometry width="160" relative="1" as="geometry">
            <mxPoint x="190" y="435" as="sourcePoint" />
            <mxPoint x="109" y="477" as="targetPoint" />
          </mxGeometry>
        </mxCell>
        <mxCell id="UGHHSuZMt2xYdVVIRW-B-39" value="Create Resident Email" style="ellipse;whiteSpace=wrap;html=1;" parent="UGHHSuZMt2xYdVVIRW-B-1" vertex="1">
          <mxGeometry x="180" y="520" width="80" height="50" as="geometry" />
        </mxCell>
        <mxCell id="UGHHSuZMt2xYdVVIRW-B-43" value="&amp;lt;&amp;lt;include&amp;gt;&amp;gt;" style="html=1;verticalAlign=bottom;labelBackgroundColor=none;endArrow=open;endFill=0;dashed=1;rounded=0;exitX=0;exitY=0;exitDx=0;exitDy=0;entryX=1;entryY=1;entryDx=0;entryDy=0;" parent="UGHHSuZMt2xYdVVIRW-B-1" source="UGHHSuZMt2xYdVVIRW-B-39" target="UGHHSuZMt2xYdVVIRW-B-5" edge="1">
          <mxGeometry width="160" relative="1" as="geometry">
            <mxPoint x="190" y="495" as="sourcePoint" />
            <mxPoint x="120" y="495" as="targetPoint" />
          </mxGeometry>
        </mxCell>
        <mxCell id="XDrAuKswI3BmRtbmQrcN-1" value="Add Package to Unknown" style="ellipse;whiteSpace=wrap;html=1;" vertex="1" parent="UGHHSuZMt2xYdVVIRW-B-1">
          <mxGeometry x="30" y="570" width="80" height="50" as="geometry" />
        </mxCell>
        <mxCell id="UGHHSuZMt2xYdVVIRW-B-15" style="edgeStyle=orthogonalEdgeStyle;rounded=0;orthogonalLoop=1;jettySize=auto;html=1;exitX=1;exitY=0.3333333333333333;exitDx=0;exitDy=0;exitPerimeter=0;entryX=0;entryY=0.5;entryDx=0;entryDy=0;" parent="1" source="UGHHSuZMt2xYdVVIRW-B-2" target="UGHHSuZMt2xYdVVIRW-B-8" edge="1">
          <mxGeometry relative="1" as="geometry" />
        </mxCell>
        <mxCell id="UGHHSuZMt2xYdVVIRW-B-24" style="edgeStyle=orthogonalEdgeStyle;rounded=0;orthogonalLoop=1;jettySize=auto;html=1;exitX=1;exitY=0.3333333333333333;exitDx=0;exitDy=0;exitPerimeter=0;entryX=0;entryY=0.5;entryDx=0;entryDy=0;" parent="1" source="UGHHSuZMt2xYdVVIRW-B-2" target="UGHHSuZMt2xYdVVIRW-B-23" edge="1">
          <mxGeometry relative="1" as="geometry" />
        </mxCell>
        <mxCell id="UGHHSuZMt2xYdVVIRW-B-26" style="edgeStyle=orthogonalEdgeStyle;rounded=0;orthogonalLoop=1;jettySize=auto;html=1;exitX=1;exitY=0.3333333333333333;exitDx=0;exitDy=0;exitPerimeter=0;entryX=0;entryY=0.5;entryDx=0;entryDy=0;" parent="1" source="UGHHSuZMt2xYdVVIRW-B-2" target="UGHHSuZMt2xYdVVIRW-B-21" edge="1">
          <mxGeometry relative="1" as="geometry" />
        </mxCell>
        <mxCell id="UGHHSuZMt2xYdVVIRW-B-27" style="edgeStyle=orthogonalEdgeStyle;rounded=0;orthogonalLoop=1;jettySize=auto;html=1;exitX=1;exitY=0.3333333333333333;exitDx=0;exitDy=0;exitPerimeter=0;entryX=0;entryY=0.5;entryDx=0;entryDy=0;" parent="1" source="UGHHSuZMt2xYdVVIRW-B-2" target="UGHHSuZMt2xYdVVIRW-B-20" edge="1">
          <mxGeometry relative="1" as="geometry" />
        </mxCell>
        <mxCell id="UGHHSuZMt2xYdVVIRW-B-36" style="edgeStyle=orthogonalEdgeStyle;rounded=0;orthogonalLoop=1;jettySize=auto;html=1;exitX=1;exitY=0.3333333333333333;exitDx=0;exitDy=0;exitPerimeter=0;entryX=0;entryY=0.5;entryDx=0;entryDy=0;" parent="1" source="UGHHSuZMt2xYdVVIRW-B-2" target="UGHHSuZMt2xYdVVIRW-B-5" edge="1">
          <mxGeometry relative="1" as="geometry" />
        </mxCell>
        <mxCell id="UGHHSuZMt2xYdVVIRW-B-37" style="edgeStyle=orthogonalEdgeStyle;rounded=0;orthogonalLoop=1;jettySize=auto;html=1;exitX=1;exitY=0.3333333333333333;exitDx=0;exitDy=0;exitPerimeter=0;entryX=0;entryY=0.5;entryDx=0;entryDy=0;jumpStyle=arc;jumpSize=10;" parent="1" source="UGHHSuZMt2xYdVVIRW-B-2" target="UGHHSuZMt2xYdVVIRW-B-22" edge="1">
          <mxGeometry relative="1" as="geometry" />
        </mxCell>
        <mxCell id="XDrAuKswI3BmRtbmQrcN-2" style="edgeStyle=orthogonalEdgeStyle;rounded=0;orthogonalLoop=1;jettySize=auto;html=1;exitX=1;exitY=0.3333333333333333;exitDx=0;exitDy=0;exitPerimeter=0;entryX=0;entryY=0.5;entryDx=0;entryDy=0;" edge="1" parent="1" source="UGHHSuZMt2xYdVVIRW-B-2" target="XDrAuKswI3BmRtbmQrcN-1">
          <mxGeometry relative="1" as="geometry">
            <Array as="points">
              <mxPoint x="90" y="380" />
              <mxPoint x="90" y="675" />
            </Array>
          </mxGeometry>
        </mxCell>
        <mxCell id="UGHHSuZMt2xYdVVIRW-B-2" value="Staff" style="shape=umlActor;verticalLabelPosition=bottom;verticalAlign=top;html=1;outlineConnect=0;" parent="1" vertex="1">
          <mxGeometry x="10" y="360" width="30" height="60" as="geometry" />
        </mxCell>
      </root>
    </mxGraphModel>
  </diagram>
</mxfile>
